# xmcd
#
# Track frame offsets:
#	150
#	13428
#	27616
#	44021
#	62483
#	83633
#	102206
#	110907
#	129679
#	144045
#	160786
#
# Disc length: 2411 seconds
#
# Revision: 0
# Processed by: cddbd v1.5.1PL0 Copyright (c) Steve Scherf et al.
# Submitted via: dBpowerAMP V4.0
#
DISCID=9609690b
DTITLE=Wagons - Draw Blood
DYEAR=2004
DGENRE=Alt. Country
TTITLE0=Eagle on the Hill
TTITLE1=Man Sold
TTITLE2=Alone With Me
TTITLE3=This is What Death Looks Like
TTITLE4=Last Wish
TTITLE5=I'm a Liar
TTITLE6=You and Me
TTITLE7=Jerry
TTITLE8=I Pray
TTITLE9=Lost My Mind
TTITLE10=All the Time
EXTD=JM 10/04
EXTT0=
EXTT1=
EXTT2=
EXTT3=
EXTT4=
EXTT5=
EXTT6=
EXTT7=
EXTT8=
EXTT9=
EXTT10=
PLAYORDER=
